PathFileType   4   (X/Y/Z)
DataRate	CameraRate	NumFrames	NumMarkers	Units	OrigDataRate	OrigDataStartFrame	OrigNumFrames
120.0	120.0	4	37	mm	120.0	89	118
Frame#	Time	midhip	hip_r	hip_l	knee_r	knee_l	ankle_r	ankle_l	midasis	asis_r	asis_l	psis_r	psis_l	epicondLat_r	epicondLat_l	epicondMed_r	epicondMed_l	malleolusLat_r	malleolusLat_l	malleolusMedv_r	malleolusMedv_l	neck	subclavicle_r	subclavicle_l	sternalnotch	xyphoidprocess	thighwand_r	thighwand_l	upperleg1_r	upperleg1_l	upperleg2_r	upperleg2_l	shankwand_r	shankwand_l	lowerleg1_r	lowerleg1_l	toe_r	toe_l
 	 	X1	Y1	Z1	X2	Y2	Z2	X3	Y3	Z3	X4	Y4	Z4	X5	Y5	Z5	X6	Y6	Z6	X7	Y7	Z7	X8	Y8	Z8	X9	Y9	Z9	X10	Y10	Z10	X11	Y11	Z11	X12	Y12	Z12	X13	Y13	Z13	X14	Y14	Z14	X15	Y15	Z15	X16	Y16	Z16	X17	Y17	Z17	X18	Y18	Z18	X19	Y19	Z19	X20	Y20	Z20	X21	Y21	Z21	X22	Y22	Z22	X23	Y23	Z23	X24	Y24	Z24	X25	Y25	Z25	X26	Y26	Z26	X27	Y27	Z27	X28	Y28	Z28	X29	Y29	Z29	X30	Y30	Z30	X31	Y31	Z31	X32	Y32	Z32	X33	Y33	Z33	X34	Y34	Z34	X35	Y35	Z35	X36	Y36	Z36	X37	Y37	Z37

	89	0.85833	1979.524	897.038	-241.397	1970.688	873.587	-173.681	1982.504	882.085	-323.404	2133.538	490.119	-135.872	1998.037	465.322	-287.436	1915.581	166.682	-147.034	1952.379	70.156	-255.974	2061.615	965.310	-236.868	2052.374	958.663	-119.760	2070.857	971.957	-353.976	1872.780	1000.703	-210.494	1883.817	1005.242	-295.439	2136.985	497.296	-77.917	2008.304	460.794	-344.340	2150.369	479.558	-186.352	1980.388	477.801	-230.288	1899.771	176.110	-111.522	1938.798	68.816	-292.508	1934.272	170.736	-172.656	1958.570	86.815	-230.444	1876.879	1431.041	-230.385	2000.040	1355.058	-172.244	2012.337	1359.640	-278.262	1988.764	1365.018	-224.102	2071.688	1201.883	-233.273	2140.994	603.218	-1.766	2145.069	569.043	-283.973	2137.041	668.729	-69.011	2080.875	619.139	-337.323	2173.047	588.885	-86.583	2059.596	534.273	-324.751	1977.077	281.581	-20.447	1987.435	195.157	-384.024	1961.060	254.681	-95.466	1957.319	165.518	-313.820	1983.066	69.677	-113.865	2073.292	39.281	-264.584
	90	0.86667	1988.420	896.690	-240.826	1980.116	873.846	-173.590	1991.532	881.646	-323.382	2148.031	491.713	-136.661	2001.567	465.013	-287.450	1943.962	159.448	-147.294	1952.650	70.215	-255.622	2070.648	965.492	-237.453	2061.735	959.402	-120.502	2079.561	971.581	-354.403	1881.628	1000.426	-210.487	1892.705	1004.761	-295.438	2152.467	499.252	-78.818	2011.811	460.352	-344.348	2166.466	481.598	-186.797	1983.819	477.194	-231.015	1928.020	168.098	-111.643	1939.163	68.938	-292.194	1962.389	164.591	-173.153	1958.706	86.603	-230.173	1886.206	1431.052	-230.934	2009.030	1355.079	-173.230	2021.364	1359.803	-278.928	1997.950	1364.911	-224.728	2080.596	1201.943	-234.297	2156.700	606.216	-2.856	2149.726	566.814	-283.908	2150.475	671.227	-70.553	2086.039	617.745	-337.556	2188.027	592.115	-88.085	2063.871	532.942	-325.133	2001.489	276.594	-20.737	1989.086	194.802	-383.785	1986.948	248.934	-96.090	1959.054	165.492	-313.823	2017.493	66.991	-115.407	2073.403	39.259	-264.569
	91	0.87500	1997.135	895.997	-240.295	1989.551	873.915	-173.430	2000.552	881.062	-323.286	2161.968	492.994	-137.458	2005.042	464.662	-287.437	1972.950	151.938	-147.578	1952.973	70.237	-255.259	2079.666	965.512	-237.949	2071.089	959.939	-121.106	2088.243	971.085	-354.791	1890.462	999.974	-210.434	1901.578	1004.102	-295.400	2167.355	500.883	-79.744	2015.362	459.877	-344.311	2180.315	483.875	-188.042	1986.540	478.330	-230.514	1956.875	159.785	-111.800	1939.586	69.018	-291.869	1990.718	157.956	-173.594	1958.725	86.473	-229.900	1895.452	1430.889	-231.312	2018.239	1354.904	-174.411	2030.165	1359.387	-279.228	2007.155	1364.645	-225.349	2089.306	1201.519	-234.964	2171.837	608.874	-4.048	2154.392	564.633	-283.535	2163.534	673.531	-71.785	2091.863	616.369	-337.688	2202.056	594.804	-89.942	2067.893	531.665	-324.706	2026.062	271.376	-21.058	1990.766	194.425	-383.518	2013.472	243.491	-96.230	1960.616	165.432	-313.611	2052.201	64.361	-117.023	2073.477	39.257	-264.570
	92	0.88333	2006.029	895.357	-239.930	1998.984	873.787	-173.226	2009.547	880.337	-323.141	2175.364	493.956	-138.263	2008.469	464.272	-287.385	2002.534	144.283	-147.881	1953.313	70.233	-254.898	2088.668	965.359	-238.379	2080.440	960.256	-121.605	2096.895	970.461	-355.153	1899.308	999.354	-210.321	1910.412	1003.278	-295.310	2181.636	502.169	-80.682	2018.967	459.361	-344.215	2191.860	485.273	-188.836	1989.861	478.487	-230.089	1986.318	151.311	-111.998	1940.032	69.071	-291.548	2019.842	151.299	-173.854	1958.283	86.523	-229.568	1904.539	1430.580	-231.927	2027.693	1354.260	-175.032	2039.261	1358.571	-279.585	2016.378	1364.245	-225.981	2098.299	1200.672	-235.450	2186.347	611.125	-5.326	2159.097	562.490	-282.847	2176.128	675.468	-73.452	2097.511	615.108	-337.063	2214.805	597.070	-91.914	2072.163	530.431	-324.071	2050.750	266.023	-21.411	1992.458	194.029	-383.213	2038.446	238.154	-96.236	1961.882	165.392	-313.256	2087.132	61.886	-118.636	2073.510	39.271	-264.581
